<?xml version="1.0" encoding="utf-8" standalone="no"?>
<!DOCTYPE svg PUBLIC "-//W3C//DTD SVG 1.1//EN"
  "http://www.w3.org/Graphics/SVG/1.1/DTD/svg11.dtd">
<!-- Created with matplotlib (https://matplotlib.org/) -->
<svg height="343.585156pt" version="1.1" viewBox="0 0 492.981719 343.585156" width="492.981719pt" xmlns="http://www.w3.org/2000/svg" xmlns:xlink="http://www.w3.org/1999/xlink">
 <metadata>
  <rdf:RDF xmlns:cc="http://creativecommons.org/ns#" xmlns:dc="http://purl.org/dc/elements/1.1/" xmlns:rdf="http://www.w3.org/1999/02/22-rdf-syntax-ns#">
   <cc:Work>
    <dc:type rdf:resource="http://purl.org/dc/dcmitype/StillImage"/>
    <dc:date>2020-12-01T11:36:00.799818</dc:date>
    <dc:format>image/svg+xml</dc:format>
    <dc:creator>
     <cc:Agent>
      <dc:title>Matplotlib v3.3.2, https://matplotlib.org/</dc:title>
     </cc:Agent>
    </dc:creator>
   </cc:Work>
  </rdf:RDF>
 </metadata>
 <defs>
  <style type="text/css">*{stroke-linecap:butt;stroke-linejoin:round;}</style>
 </defs>
 <g id="figure_1">
  <g id="patch_1">
   <path d="M 0 343.585156 
L 492.981719 343.585156 
L 492.981719 0 
L 0 0 
z
" style="fill:#ffffff;"/>
  </g>
  <g id="axes_1">
   <g id="patch_2">
    <path d="M 39.381719 306.18 
L 485.781719 306.18 
L 485.781719 7.2 
L 39.381719 7.2 
z
" style="fill:#eaeaf2;"/>
   </g>
   <g id="matplotlib.axis_1">
    <g id="xtick_1">
     <g id="line2d_1">
      <path clip-path="url(#p3a0a13e1c7)" d="M 59.672628 306.18 
L 59.672628 7.2 
" style="fill:none;stroke:#ffffff;stroke-linecap:round;"/>
     </g>
     <g id="line2d_2"/>
     <g id="text_1">
      <!-- 0 -->
      <g style="fill:#262626;" transform="translate(56.892159 320.337812)scale(0.1 -0.1)">
       <defs>
        <path d="M 4.15625 35.296875 
Q 4.15625 48 6.765625 55.734375 
Q 9.375 63.484375 14.515625 67.671875 
Q 19.671875 71.875 27.484375 71.875 
Q 33.25 71.875 37.59375 69.546875 
Q 41.9375 67.234375 44.765625 62.859375 
Q 47.609375 58.5 49.21875 52.21875 
Q 50.828125 45.953125 50.828125 35.296875 
Q 50.828125 22.703125 48.234375 14.96875 
Q 45.65625 7.234375 40.5 3 
Q 35.359375 -1.21875 27.484375 -1.21875 
Q 17.140625 -1.21875 11.234375 6.203125 
Q 4.15625 15.140625 4.15625 35.296875 
z
M 13.1875 35.296875 
Q 13.1875 17.671875 17.3125 11.828125 
Q 21.4375 6 27.484375 6 
Q 33.546875 6 37.671875 11.859375 
Q 41.796875 17.71875 41.796875 35.296875 
Q 41.796875 52.984375 37.671875 58.78125 
Q 33.546875 64.59375 27.390625 64.59375 
Q 21.34375 64.59375 17.71875 59.46875 
Q 13.1875 52.9375 13.1875 35.296875 
z
" id="ArialMT-48"/>
       </defs>
       <use xlink:href="#ArialMT-48"/>
      </g>
     </g>
    </g>
    <g id="xtick_2">
     <g id="line2d_3">
      <path clip-path="url(#p3a0a13e1c7)" d="M 127.308991 306.18 
L 127.308991 7.2 
" style="fill:none;stroke:#ffffff;stroke-linecap:round;"/>
     </g>
     <g id="line2d_4"/>
     <g id="text_2">
      <!-- 5 -->
      <g style="fill:#262626;" transform="translate(124.528523 320.337812)scale(0.1 -0.1)">
       <defs>
        <path d="M 4.15625 18.75 
L 13.375 19.53125 
Q 14.40625 12.796875 18.140625 9.390625 
Q 21.875 6 27.15625 6 
Q 33.5 6 37.890625 10.78125 
Q 42.28125 15.578125 42.28125 23.484375 
Q 42.28125 31 38.0625 35.34375 
Q 33.84375 39.703125 27 39.703125 
Q 22.75 39.703125 19.328125 37.765625 
Q 15.921875 35.84375 13.96875 32.765625 
L 5.71875 33.84375 
L 12.640625 70.609375 
L 48.25 70.609375 
L 48.25 62.203125 
L 19.671875 62.203125 
L 15.828125 42.96875 
Q 22.265625 47.46875 29.34375 47.46875 
Q 38.71875 47.46875 45.15625 40.96875 
Q 51.609375 34.46875 51.609375 24.265625 
Q 51.609375 14.546875 45.953125 7.46875 
Q 39.0625 -1.21875 27.15625 -1.21875 
Q 17.390625 -1.21875 11.203125 4.25 
Q 5.03125 9.71875 4.15625 18.75 
z
" id="ArialMT-53"/>
       </defs>
       <use xlink:href="#ArialMT-53"/>
      </g>
     </g>
    </g>
    <g id="xtick_3">
     <g id="line2d_5">
      <path clip-path="url(#p3a0a13e1c7)" d="M 194.945355 306.18 
L 194.945355 7.2 
" style="fill:none;stroke:#ffffff;stroke-linecap:round;"/>
     </g>
     <g id="line2d_6"/>
     <g id="text_3">
      <!-- 10 -->
      <g style="fill:#262626;" transform="translate(189.384418 320.337812)scale(0.1 -0.1)">
       <defs>
        <path d="M 37.25 0 
L 28.46875 0 
L 28.46875 56 
Q 25.296875 52.984375 20.140625 49.953125 
Q 14.984375 46.921875 10.890625 45.40625 
L 10.890625 53.90625 
Q 18.265625 57.375 23.78125 62.296875 
Q 29.296875 67.234375 31.59375 71.875 
L 37.25 71.875 
z
" id="ArialMT-49"/>
       </defs>
       <use xlink:href="#ArialMT-49"/>
       <use x="55.615234" xlink:href="#ArialMT-48"/>
      </g>
     </g>
    </g>
    <g id="xtick_4">
     <g id="line2d_7">
      <path clip-path="url(#p3a0a13e1c7)" d="M 262.581719 306.18 
L 262.581719 7.2 
" style="fill:none;stroke:#ffffff;stroke-linecap:round;"/>
     </g>
     <g id="line2d_8"/>
     <g id="text_4">
      <!-- 15 -->
      <g style="fill:#262626;" transform="translate(257.020781 320.337812)scale(0.1 -0.1)">
       <use xlink:href="#ArialMT-49"/>
       <use x="55.615234" xlink:href="#ArialMT-53"/>
      </g>
     </g>
    </g>
    <g id="xtick_5">
     <g id="line2d_9">
      <path clip-path="url(#p3a0a13e1c7)" d="M 330.218082 306.18 
L 330.218082 7.2 
" style="fill:none;stroke:#ffffff;stroke-linecap:round;"/>
     </g>
     <g id="line2d_10"/>
     <g id="text_5">
      <!-- 20 -->
      <g style="fill:#262626;" transform="translate(324.657145 320.337812)scale(0.1 -0.1)">
       <defs>
        <path d="M 50.34375 8.453125 
L 50.34375 0 
L 3.03125 0 
Q 2.9375 3.171875 4.046875 6.109375 
Q 5.859375 10.9375 9.828125 15.625 
Q 13.8125 20.3125 21.34375 26.46875 
Q 33.015625 36.03125 37.109375 41.625 
Q 41.21875 47.21875 41.21875 52.203125 
Q 41.21875 57.421875 37.46875 61 
Q 33.734375 64.59375 27.734375 64.59375 
Q 21.390625 64.59375 17.578125 60.78125 
Q 13.765625 56.984375 13.71875 50.25 
L 4.6875 51.171875 
Q 5.609375 61.28125 11.65625 66.578125 
Q 17.71875 71.875 27.9375 71.875 
Q 38.234375 71.875 44.234375 66.15625 
Q 50.25 60.453125 50.25 52 
Q 50.25 47.703125 48.484375 43.546875 
Q 46.734375 39.40625 42.65625 34.8125 
Q 38.578125 30.21875 29.109375 22.21875 
Q 21.1875 15.578125 18.9375 13.203125 
Q 16.703125 10.84375 15.234375 8.453125 
z
" id="ArialMT-50"/>
       </defs>
       <use xlink:href="#ArialMT-50"/>
       <use x="55.615234" xlink:href="#ArialMT-48"/>
      </g>
     </g>
    </g>
    <g id="xtick_6">
     <g id="line2d_11">
      <path clip-path="url(#p3a0a13e1c7)" d="M 397.854446 306.18 
L 397.854446 7.2 
" style="fill:none;stroke:#ffffff;stroke-linecap:round;"/>
     </g>
     <g id="line2d_12"/>
     <g id="text_6">
      <!-- 25 -->
      <g style="fill:#262626;" transform="translate(392.293509 320.337812)scale(0.1 -0.1)">
       <use xlink:href="#ArialMT-50"/>
       <use x="55.615234" xlink:href="#ArialMT-53"/>
      </g>
     </g>
    </g>
    <g id="xtick_7">
     <g id="line2d_13">
      <path clip-path="url(#p3a0a13e1c7)" d="M 465.49081 306.18 
L 465.49081 7.2 
" style="fill:none;stroke:#ffffff;stroke-linecap:round;"/>
     </g>
     <g id="line2d_14"/>
     <g id="text_7">
      <!-- 30 -->
      <g style="fill:#262626;" transform="translate(459.929872 320.337812)scale(0.1 -0.1)">
       <defs>
        <path d="M 4.203125 18.890625 
L 12.984375 20.0625 
Q 14.5 12.59375 18.140625 9.296875 
Q 21.78125 6 27 6 
Q 33.203125 6 37.46875 10.296875 
Q 41.75 14.59375 41.75 20.953125 
Q 41.75 27 37.796875 30.921875 
Q 33.84375 34.859375 27.734375 34.859375 
Q 25.25 34.859375 21.53125 33.890625 
L 22.515625 41.609375 
Q 23.390625 41.5 23.921875 41.5 
Q 29.546875 41.5 34.03125 44.421875 
Q 38.53125 47.359375 38.53125 53.46875 
Q 38.53125 58.296875 35.25 61.46875 
Q 31.984375 64.65625 26.8125 64.65625 
Q 21.6875 64.65625 18.265625 61.421875 
Q 14.84375 58.203125 13.875 51.765625 
L 5.078125 53.328125 
Q 6.6875 62.15625 12.390625 67.015625 
Q 18.109375 71.875 26.609375 71.875 
Q 32.46875 71.875 37.390625 69.359375 
Q 42.328125 66.84375 44.9375 62.5 
Q 47.5625 58.15625 47.5625 53.265625 
Q 47.5625 48.640625 45.0625 44.828125 
Q 42.578125 41.015625 37.703125 38.765625 
Q 44.046875 37.3125 47.5625 32.6875 
Q 51.078125 28.078125 51.078125 21.140625 
Q 51.078125 11.765625 44.234375 5.25 
Q 37.40625 -1.265625 26.953125 -1.265625 
Q 17.53125 -1.265625 11.296875 4.34375 
Q 5.078125 9.96875 4.203125 18.890625 
z
" id="ArialMT-51"/>
       </defs>
       <use xlink:href="#ArialMT-51"/>
       <use x="55.615234" xlink:href="#ArialMT-48"/>
      </g>
     </g>
    </g>
    <g id="text_8">
     <!-- x -->
     <g style="fill:#262626;" transform="translate(259.831719 334.198906)scale(0.11 -0.11)">
      <defs>
       <path d="M 0.734375 0 
L 19.671875 26.953125 
L 2.15625 51.859375 
L 13.140625 51.859375 
L 21.09375 39.703125 
Q 23.34375 36.234375 24.703125 33.890625 
Q 26.859375 37.109375 28.65625 39.59375 
L 37.40625 51.859375 
L 47.90625 51.859375 
L 29.984375 27.4375 
L 49.265625 0 
L 38.484375 0 
L 27.828125 16.109375 
L 25 20.453125 
L 11.375 0 
z
" id="ArialMT-120"/>
      </defs>
      <use xlink:href="#ArialMT-120"/>
     </g>
    </g>
   </g>
   <g id="matplotlib.axis_2">
    <g id="ytick_1">
     <g id="line2d_15">
      <path clip-path="url(#p3a0a13e1c7)" d="M 39.381719 279.993426 
L 485.781719 279.993426 
" style="fill:none;stroke:#ffffff;stroke-linecap:round;"/>
     </g>
     <g id="line2d_16"/>
     <g id="text_9">
      <!-- 2 -->
      <g style="fill:#262626;" transform="translate(26.820781 283.572332)scale(0.1 -0.1)">
       <use xlink:href="#ArialMT-50"/>
      </g>
     </g>
    </g>
    <g id="ytick_2">
     <g id="line2d_17">
      <path clip-path="url(#p3a0a13e1c7)" d="M 39.381719 243.015536 
L 485.781719 243.015536 
" style="fill:none;stroke:#ffffff;stroke-linecap:round;"/>
     </g>
     <g id="line2d_18"/>
     <g id="text_10">
      <!-- 4 -->
      <g style="fill:#262626;" transform="translate(26.820781 246.594442)scale(0.1 -0.1)">
       <defs>
        <path d="M 32.328125 0 
L 32.328125 17.140625 
L 1.265625 17.140625 
L 1.265625 25.203125 
L 33.9375 71.578125 
L 41.109375 71.578125 
L 41.109375 25.203125 
L 50.78125 25.203125 
L 50.78125 17.140625 
L 41.109375 17.140625 
L 41.109375 0 
z
M 32.328125 25.203125 
L 32.328125 57.46875 
L 9.90625 25.203125 
z
" id="ArialMT-52"/>
       </defs>
       <use xlink:href="#ArialMT-52"/>
      </g>
     </g>
    </g>
    <g id="ytick_3">
     <g id="line2d_19">
      <path clip-path="url(#p3a0a13e1c7)" d="M 39.381719 206.037646 
L 485.781719 206.037646 
" style="fill:none;stroke:#ffffff;stroke-linecap:round;"/>
     </g>
     <g id="line2d_20"/>
     <g id="text_11">
      <!-- 6 -->
      <g style="fill:#262626;" transform="translate(26.820781 209.616552)scale(0.1 -0.1)">
       <defs>
        <path d="M 49.75 54.046875 
L 41.015625 53.375 
Q 39.84375 58.546875 37.703125 60.890625 
Q 34.125 64.65625 28.90625 64.65625 
Q 24.703125 64.65625 21.53125 62.3125 
Q 17.390625 59.28125 14.984375 53.46875 
Q 12.59375 47.65625 12.5 36.921875 
Q 15.671875 41.75 20.265625 44.09375 
Q 24.859375 46.4375 29.890625 46.4375 
Q 38.671875 46.4375 44.84375 39.96875 
Q 51.03125 33.5 51.03125 23.25 
Q 51.03125 16.5 48.125 10.71875 
Q 45.21875 4.9375 40.140625 1.859375 
Q 35.0625 -1.21875 28.609375 -1.21875 
Q 17.625 -1.21875 10.6875 6.859375 
Q 3.765625 14.9375 3.765625 33.5 
Q 3.765625 54.25 11.421875 63.671875 
Q 18.109375 71.875 29.4375 71.875 
Q 37.890625 71.875 43.28125 67.140625 
Q 48.6875 62.40625 49.75 54.046875 
z
M 13.875 23.1875 
Q 13.875 18.65625 15.796875 14.5 
Q 17.71875 10.359375 21.1875 8.171875 
Q 24.65625 6 28.46875 6 
Q 34.03125 6 38.03125 10.484375 
Q 42.046875 14.984375 42.046875 22.703125 
Q 42.046875 30.125 38.078125 34.390625 
Q 34.125 38.671875 28.125 38.671875 
Q 22.171875 38.671875 18.015625 34.390625 
Q 13.875 30.125 13.875 23.1875 
z
" id="ArialMT-54"/>
       </defs>
       <use xlink:href="#ArialMT-54"/>
      </g>
     </g>
    </g>
    <g id="ytick_4">
     <g id="line2d_21">
      <path clip-path="url(#p3a0a13e1c7)" d="M 39.381719 169.059756 
L 485.781719 169.059756 
" style="fill:none;stroke:#ffffff;stroke-linecap:round;"/>
     </g>
     <g id="line2d_22"/>
     <g id="text_12">
      <!-- 8 -->
      <g style="fill:#262626;" transform="translate(26.820781 172.638663)scale(0.1 -0.1)">
       <defs>
        <path d="M 17.671875 38.8125 
Q 12.203125 40.828125 9.5625 44.53125 
Q 6.9375 48.25 6.9375 53.421875 
Q 6.9375 61.234375 12.546875 66.546875 
Q 18.171875 71.875 27.484375 71.875 
Q 36.859375 71.875 42.578125 66.421875 
Q 48.296875 60.984375 48.296875 53.171875 
Q 48.296875 48.1875 45.671875 44.5 
Q 43.0625 40.828125 37.75 38.8125 
Q 44.34375 36.671875 47.78125 31.875 
Q 51.21875 27.09375 51.21875 20.453125 
Q 51.21875 11.28125 44.71875 5.03125 
Q 38.234375 -1.21875 27.640625 -1.21875 
Q 17.046875 -1.21875 10.546875 5.046875 
Q 4.046875 11.328125 4.046875 20.703125 
Q 4.046875 27.6875 7.59375 32.390625 
Q 11.140625 37.109375 17.671875 38.8125 
z
M 15.921875 53.71875 
Q 15.921875 48.640625 19.1875 45.40625 
Q 22.46875 42.1875 27.6875 42.1875 
Q 32.765625 42.1875 36.015625 45.375 
Q 39.265625 48.578125 39.265625 53.21875 
Q 39.265625 58.0625 35.90625 61.359375 
Q 32.5625 64.65625 27.59375 64.65625 
Q 22.5625 64.65625 19.234375 61.421875 
Q 15.921875 58.203125 15.921875 53.71875 
z
M 13.09375 20.65625 
Q 13.09375 16.890625 14.875 13.375 
Q 16.65625 9.859375 20.171875 7.921875 
Q 23.6875 6 27.734375 6 
Q 34.03125 6 38.125 10.046875 
Q 42.234375 14.109375 42.234375 20.359375 
Q 42.234375 26.703125 38.015625 30.859375 
Q 33.796875 35.015625 27.4375 35.015625 
Q 21.234375 35.015625 17.15625 30.90625 
Q 13.09375 26.8125 13.09375 20.65625 
z
" id="ArialMT-56"/>
       </defs>
       <use xlink:href="#ArialMT-56"/>
      </g>
     </g>
    </g>
    <g id="ytick_5">
     <g id="line2d_23">
      <path clip-path="url(#p3a0a13e1c7)" d="M 39.381719 132.081867 
L 485.781719 132.081867 
" style="fill:none;stroke:#ffffff;stroke-linecap:round;"/>
     </g>
     <g id="line2d_24"/>
     <g id="text_13">
      <!-- 10 -->
      <g style="fill:#262626;" transform="translate(21.259844 135.660773)scale(0.1 -0.1)">
       <use xlink:href="#ArialMT-49"/>
       <use x="55.615234" xlink:href="#ArialMT-48"/>
      </g>
     </g>
    </g>
    <g id="ytick_6">
     <g id="line2d_25">
      <path clip-path="url(#p3a0a13e1c7)" d="M 39.381719 95.103977 
L 485.781719 95.103977 
" style="fill:none;stroke:#ffffff;stroke-linecap:round;"/>
     </g>
     <g id="line2d_26"/>
     <g id="text_14">
      <!-- 12 -->
      <g style="fill:#262626;" transform="translate(21.259844 98.682883)scale(0.1 -0.1)">
       <use xlink:href="#ArialMT-49"/>
       <use x="55.615234" xlink:href="#ArialMT-50"/>
      </g>
     </g>
    </g>
    <g id="ytick_7">
     <g id="line2d_27">
      <path clip-path="url(#p3a0a13e1c7)" d="M 39.381719 58.126087 
L 485.781719 58.126087 
" style="fill:none;stroke:#ffffff;stroke-linecap:round;"/>
     </g>
     <g id="line2d_28"/>
     <g id="text_15">
      <!-- 14 -->
      <g style="fill:#262626;" transform="translate(21.259844 61.704993)scale(0.1 -0.1)">
       <use xlink:href="#ArialMT-49"/>
       <use x="55.615234" xlink:href="#ArialMT-52"/>
      </g>
     </g>
    </g>
    <g id="ytick_8">
     <g id="line2d_29">
      <path clip-path="url(#p3a0a13e1c7)" d="M 39.381719 21.148197 
L 485.781719 21.148197 
" style="fill:none;stroke:#ffffff;stroke-linecap:round;"/>
     </g>
     <g id="line2d_30"/>
     <g id="text_16">
      <!-- 16 -->
      <g style="fill:#262626;" transform="translate(21.259844 24.727104)scale(0.1 -0.1)">
       <use xlink:href="#ArialMT-49"/>
       <use x="55.615234" xlink:href="#ArialMT-54"/>
      </g>
     </g>
    </g>
    <g id="text_17">
     <!-- y -->
     <g style="fill:#262626;" transform="translate(14.944688 159.44)rotate(-90)scale(0.11 -0.11)">
      <defs>
       <path d="M 6.203125 -19.96875 
L 5.21875 -11.71875 
Q 8.109375 -12.5 10.25 -12.5 
Q 13.1875 -12.5 14.9375 -11.515625 
Q 16.703125 -10.546875 17.828125 -8.796875 
Q 18.65625 -7.46875 20.515625 -2.25 
Q 20.75 -1.515625 21.296875 -0.09375 
L 1.609375 51.859375 
L 11.078125 51.859375 
L 21.875 21.828125 
Q 23.96875 16.109375 25.640625 9.8125 
Q 27.15625 15.875 29.25 21.625 
L 40.328125 51.859375 
L 49.125 51.859375 
L 29.390625 -0.875 
Q 26.21875 -9.421875 24.46875 -12.640625 
Q 22.125 -17 19.09375 -19.015625 
Q 16.0625 -21.046875 11.859375 -21.046875 
Q 9.328125 -21.046875 6.203125 -19.96875 
z
" id="ArialMT-121"/>
      </defs>
      <use xlink:href="#ArialMT-121"/>
     </g>
    </g>
   </g>
   <g id="PathCollection_1">
    <defs>
     <path d="M 0 3.5 
C 0.928211 3.5 1.81853 3.131218 2.474874 2.474874 
C 3.131218 1.81853 3.5 0.928211 3.5 0 
C 3.5 -0.928211 3.131218 -1.81853 2.474874 -2.474874 
C 1.81853 -3.131218 0.928211 -3.5 0 -3.5 
C -0.928211 -3.5 -1.81853 -3.131218 -2.474874 -2.474874 
C -3.131218 -1.81853 -3.5 -0.928211 -3.5 0 
C -3.5 0.928211 -3.131218 1.81853 -2.474874 2.474874 
C -1.81853 3.131218 -0.928211 3.5 0 3.5 
z
" id="me57a950bbb" style="stroke:#4c72b0;stroke-width:0.3;"/>
    </defs>
    <g clip-path="url(#p3a0a13e1c7)">
     <use style="fill:#4c72b0;stroke:#4c72b0;stroke-width:0.3;" x="184.571173" xlink:href="#me57a950bbb" y="251.87492"/>
     <use style="fill:#4c72b0;stroke:#4c72b0;stroke-width:0.3;" x="74.485044" xlink:href="#me57a950bbb" y="286.519582"/>
     <use style="fill:#4c72b0;stroke:#4c72b0;stroke-width:0.3;" x="243.819631" xlink:href="#me57a950bbb" y="148.963472"/>
     <use style="fill:#4c72b0;stroke:#4c72b0;stroke-width:0.3;" x="323.546171" xlink:href="#me57a950bbb" y="122.703327"/>
     <use style="fill:#4c72b0;stroke:#4c72b0;stroke-width:0.3;" x="204.050328" xlink:href="#me57a950bbb" y="181.209575"/>
     <use style="fill:#4c72b0;stroke:#4c72b0;stroke-width:0.3;" x="455.418894" xlink:href="#me57a950bbb" y="59.794476"/>
     <use style="fill:#4c72b0;stroke:#4c72b0;stroke-width:0.3;" x="316.339768" xlink:href="#me57a950bbb" y="96.169336"/>
     <use style="fill:#4c72b0;stroke:#4c72b0;stroke-width:0.3;" x="354.890129" xlink:href="#me57a950bbb" y="83.505228"/>
     <use style="fill:#4c72b0;stroke:#4c72b0;stroke-width:0.3;" x="341.474278" xlink:href="#me57a950bbb" y="101.267038"/>
     <use style="fill:#4c72b0;stroke:#4c72b0;stroke-width:0.3;" x="245.722303" xlink:href="#me57a950bbb" y="199.761054"/>
     <use style="fill:#4c72b0;stroke:#4c72b0;stroke-width:0.3;" x="128.994839" xlink:href="#me57a950bbb" y="250.613252"/>
     <use style="fill:#4c72b0;stroke:#4c72b0;stroke-width:0.3;" x="165.749267" xlink:href="#me57a950bbb" y="211.363894"/>
     <use style="fill:#4c72b0;stroke:#4c72b0;stroke-width:0.3;" x="264.61399" xlink:href="#me57a950bbb" y="144.660093"/>
     <use style="fill:#4c72b0;stroke:#4c72b0;stroke-width:0.3;" x="178.416279" xlink:href="#me57a950bbb" y="198.252726"/>
     <use style="fill:#4c72b0;stroke:#4c72b0;stroke-width:0.3;" x="410.850424" xlink:href="#me57a950bbb" y="40.484262"/>
     <use style="fill:#4c72b0;stroke:#4c72b0;stroke-width:0.3;" x="403.203223" xlink:href="#me57a950bbb" y="61.258944"/>
     <use style="fill:#4c72b0;stroke:#4c72b0;stroke-width:0.3;" x="273.839244" xlink:href="#me57a950bbb" y="153.504915"/>
     <use style="fill:#4c72b0;stroke:#4c72b0;stroke-width:0.3;" x="360.273508" xlink:href="#me57a950bbb" y="91.79643"/>
     <use style="fill:#4c72b0;stroke:#4c72b0;stroke-width:0.3;" x="362.976963" xlink:href="#me57a950bbb" y="92.911843"/>
     <use style="fill:#4c72b0;stroke:#4c72b0;stroke-width:0.3;" x="287.692736" xlink:href="#me57a950bbb" y="136.638444"/>
    </g>
   </g>
   <g id="line2d_31">
    <path clip-path="url(#p3a0a13e1c7)" d="M 59.672628 292.59 
L 63.771801 289.844545 
L 67.870975 287.099091 
L 71.970149 284.353636 
L 76.069322 281.608182 
L 80.168496 278.862727 
L 84.267669 276.117273 
L 88.366843 273.371818 
L 92.466016 270.626364 
L 96.56519 267.880909 
L 100.664363 265.135455 
L 104.763537 262.39 
L 108.86271 259.644545 
L 112.961884 256.899091 
L 117.061058 254.153636 
L 121.160231 251.408182 
L 125.259405 248.662727 
L 129.358578 245.917273 
L 133.457752 243.171818 
L 137.556925 240.426364 
L 141.656099 237.680909 
L 145.755272 234.935455 
L 149.854446 232.19 
L 153.95362 229.444545 
L 158.052793 226.699091 
L 162.151967 223.953636 
L 166.25114 221.208182 
L 170.350314 218.462727 
L 174.449487 215.717273 
L 178.548661 212.971818 
L 182.647834 210.226364 
L 186.747008 207.480909 
L 190.846182 204.735455 
L 194.945355 201.99 
L 199.044529 199.244545 
L 203.143702 196.499091 
L 207.242876 193.753636 
L 211.342049 191.008182 
L 215.441223 188.262727 
L 219.540396 185.517273 
L 223.63957 182.771818 
L 227.738744 180.026364 
L 231.837917 177.280909 
L 235.937091 174.535455 
L 240.036264 171.79 
L 244.135438 169.044545 
L 248.234611 166.299091 
L 252.333785 163.553636 
L 256.432958 160.808182 
L 260.532132 158.062727 
L 264.631306 155.317273 
L 268.730479 152.571818 
L 272.829653 149.826364 
L 276.928826 147.080909 
L 281.028 144.335455 
L 285.127173 141.59 
L 289.226347 138.844545 
L 293.32552 136.099091 
L 297.424694 133.353636 
L 301.523868 130.608182 
L 305.623041 127.862727 
L 309.722215 125.117273 
L 313.821388 122.371818 
L 317.920562 119.626364 
L 322.019735 116.880909 
L 326.118909 114.135455 
L 330.218082 111.39 
L 334.317256 108.644545 
L 338.416429 105.899091 
L 342.515603 103.153636 
L 346.614777 100.408182 
L 350.71395 97.662727 
L 354.813124 94.917273 
L 358.912297 92.171818 
L 363.011471 89.426364 
L 367.110644 86.680909 
L 371.209818 83.935455 
L 375.308991 81.19 
L 379.408165 78.444545 
L 383.507339 75.699091 
L 387.606512 72.953636 
L 391.705686 70.208182 
L 395.804859 67.462727 
L 399.904033 64.717273 
L 404.003206 61.971818 
L 408.10238 59.226364 
L 412.201553 56.480909 
L 416.300727 53.735455 
L 420.399901 50.99 
L 424.499074 48.244545 
L 428.598248 45.499091 
L 432.697421 42.753636 
L 436.796595 40.008182 
L 440.895768 37.262727 
L 444.994942 34.517273 
L 449.094115 31.771818 
L 453.193289 29.026364 
L 457.292463 26.280909 
L 461.391636 23.535455 
L 465.49081 20.79 
" style="fill:none;stroke:#4c72b0;stroke-linecap:round;stroke-width:1.75;"/>
   </g>
   <g id="patch_3">
    <path d="M 39.381719 306.18 
L 39.381719 7.2 
" style="fill:none;"/>
   </g>
   <g id="patch_4">
    <path d="M 485.781719 306.18 
L 485.781719 7.2 
" style="fill:none;"/>
   </g>
   <g id="patch_5">
    <path d="M 39.381719 306.18 
L 485.781719 306.18 
" style="fill:none;"/>
   </g>
   <g id="patch_6">
    <path d="M 39.381719 7.2 
L 485.781719 7.2 
" style="fill:none;"/>
   </g>
  </g>
 </g>
 <defs>
  <clipPath id="p3a0a13e1c7">
   <rect height="298.98" width="446.4" x="39.381719" y="7.2"/>
  </clipPath>
 </defs>
</svg>
