<?xml version="1.0" encoding="utf-8" standalone="no"?>
<!DOCTYPE svg PUBLIC "-//W3C//DTD SVG 1.1//EN"
  "http://www.w3.org/Graphics/SVG/1.1/DTD/svg11.dtd">
<!-- Created with matplotlib (https://matplotlib.org/) -->
<svg height="329.525312pt" version="1.1" viewBox="0 0 481.982031 329.525312" width="481.982031pt" xmlns="http://www.w3.org/2000/svg" xmlns:xlink="http://www.w3.org/1999/xlink">
 <metadata>
  <rdf:RDF xmlns:cc="http://creativecommons.org/ns#" xmlns:dc="http://purl.org/dc/elements/1.1/" xmlns:rdf="http://www.w3.org/1999/02/22-rdf-syntax-ns#">
   <cc:Work>
    <dc:type rdf:resource="http://purl.org/dc/dcmitype/StillImage"/>
    <dc:date>2020-12-01T11:36:00.539054</dc:date>
    <dc:format>image/svg+xml</dc:format>
    <dc:creator>
     <cc:Agent>
      <dc:title>Matplotlib v3.3.2, https://matplotlib.org/</dc:title>
     </cc:Agent>
    </dc:creator>
   </cc:Work>
  </rdf:RDF>
 </metadata>
 <defs>
  <style type="text/css">*{stroke-linecap:butt;stroke-linejoin:round;}</style>
 </defs>
 <g id="figure_1">
  <g id="patch_1">
   <path d="M 0 329.525312 
L 481.982031 329.525312 
L 481.982031 0 
L 0 0 
z
" style="fill:#ffffff;"/>
  </g>
  <g id="axes_1">
   <g id="patch_2">
    <path d="M 25.601562 306.18 
L 472.001562 306.18 
L 472.001562 7.2 
L 25.601562 7.2 
z
" style="fill:#eaeaf2;"/>
   </g>
   <g id="matplotlib.axis_1">
    <g id="xtick_1">
     <g id="line2d_1">
      <path clip-path="url(#p9eca01112b)" d="M 25.601562 306.18 
L 25.601562 7.2 
" style="fill:none;stroke:#ffffff;stroke-linecap:round;"/>
     </g>
     <g id="line2d_2"/>
     <g id="text_1">
      <!-- −1 -->
      <g style="fill:#262626;" transform="translate(19.900781 320.337812)scale(0.1 -0.1)">
       <defs>
        <path d="M 52.828125 31.203125 
L 5.5625 31.203125 
L 5.5625 39.40625 
L 52.828125 39.40625 
z
" id="ArialMT-8722"/>
        <path d="M 37.25 0 
L 28.46875 0 
L 28.46875 56 
Q 25.296875 52.984375 20.140625 49.953125 
Q 14.984375 46.921875 10.890625 45.40625 
L 10.890625 53.90625 
Q 18.265625 57.375 23.78125 62.296875 
Q 29.296875 67.234375 31.59375 71.875 
L 37.25 71.875 
z
" id="ArialMT-49"/>
       </defs>
       <use xlink:href="#ArialMT-8722"/>
       <use x="58.398438" xlink:href="#ArialMT-49"/>
      </g>
     </g>
    </g>
    <g id="xtick_2">
     <g id="line2d_3">
      <path clip-path="url(#p9eca01112b)" d="M 100.001562 306.18 
L 100.001562 7.2 
" style="fill:none;stroke:#ffffff;stroke-linecap:round;"/>
     </g>
     <g id="line2d_4"/>
     <g id="text_2">
      <!-- 0 -->
      <g style="fill:#262626;" transform="translate(97.221094 320.337812)scale(0.1 -0.1)">
       <defs>
        <path d="M 4.15625 35.296875 
Q 4.15625 48 6.765625 55.734375 
Q 9.375 63.484375 14.515625 67.671875 
Q 19.671875 71.875 27.484375 71.875 
Q 33.25 71.875 37.59375 69.546875 
Q 41.9375 67.234375 44.765625 62.859375 
Q 47.609375 58.5 49.21875 52.21875 
Q 50.828125 45.953125 50.828125 35.296875 
Q 50.828125 22.703125 48.234375 14.96875 
Q 45.65625 7.234375 40.5 3 
Q 35.359375 -1.21875 27.484375 -1.21875 
Q 17.140625 -1.21875 11.234375 6.203125 
Q 4.15625 15.140625 4.15625 35.296875 
z
M 13.1875 35.296875 
Q 13.1875 17.671875 17.3125 11.828125 
Q 21.4375 6 27.484375 6 
Q 33.546875 6 37.671875 11.859375 
Q 41.796875 17.71875 41.796875 35.296875 
Q 41.796875 52.984375 37.671875 58.78125 
Q 33.546875 64.59375 27.390625 64.59375 
Q 21.34375 64.59375 17.71875 59.46875 
Q 13.1875 52.9375 13.1875 35.296875 
z
" id="ArialMT-48"/>
       </defs>
       <use xlink:href="#ArialMT-48"/>
      </g>
     </g>
    </g>
    <g id="xtick_3">
     <g id="line2d_5">
      <path clip-path="url(#p9eca01112b)" d="M 174.401562 306.18 
L 174.401562 7.2 
" style="fill:none;stroke:#ffffff;stroke-linecap:round;"/>
     </g>
     <g id="line2d_6"/>
     <g id="text_3">
      <!-- 1 -->
      <g style="fill:#262626;" transform="translate(171.621094 320.337812)scale(0.1 -0.1)">
       <use xlink:href="#ArialMT-49"/>
      </g>
     </g>
    </g>
    <g id="xtick_4">
     <g id="line2d_7">
      <path clip-path="url(#p9eca01112b)" d="M 248.801562 306.18 
L 248.801562 7.2 
" style="fill:none;stroke:#ffffff;stroke-linecap:round;"/>
     </g>
     <g id="line2d_8"/>
     <g id="text_4">
      <!-- 2 -->
      <g style="fill:#262626;" transform="translate(246.021094 320.337812)scale(0.1 -0.1)">
       <defs>
        <path d="M 50.34375 8.453125 
L 50.34375 0 
L 3.03125 0 
Q 2.9375 3.171875 4.046875 6.109375 
Q 5.859375 10.9375 9.828125 15.625 
Q 13.8125 20.3125 21.34375 26.46875 
Q 33.015625 36.03125 37.109375 41.625 
Q 41.21875 47.21875 41.21875 52.203125 
Q 41.21875 57.421875 37.46875 61 
Q 33.734375 64.59375 27.734375 64.59375 
Q 21.390625 64.59375 17.578125 60.78125 
Q 13.765625 56.984375 13.71875 50.25 
L 4.6875 51.171875 
Q 5.609375 61.28125 11.65625 66.578125 
Q 17.71875 71.875 27.9375 71.875 
Q 38.234375 71.875 44.234375 66.15625 
Q 50.25 60.453125 50.25 52 
Q 50.25 47.703125 48.484375 43.546875 
Q 46.734375 39.40625 42.65625 34.8125 
Q 38.578125 30.21875 29.109375 22.21875 
Q 21.1875 15.578125 18.9375 13.203125 
Q 16.703125 10.84375 15.234375 8.453125 
z
" id="ArialMT-50"/>
       </defs>
       <use xlink:href="#ArialMT-50"/>
      </g>
     </g>
    </g>
    <g id="xtick_5">
     <g id="line2d_9">
      <path clip-path="url(#p9eca01112b)" d="M 323.201562 306.18 
L 323.201562 7.2 
" style="fill:none;stroke:#ffffff;stroke-linecap:round;"/>
     </g>
     <g id="line2d_10"/>
     <g id="text_5">
      <!-- 3 -->
      <g style="fill:#262626;" transform="translate(320.421094 320.337812)scale(0.1 -0.1)">
       <defs>
        <path d="M 4.203125 18.890625 
L 12.984375 20.0625 
Q 14.5 12.59375 18.140625 9.296875 
Q 21.78125 6 27 6 
Q 33.203125 6 37.46875 10.296875 
Q 41.75 14.59375 41.75 20.953125 
Q 41.75 27 37.796875 30.921875 
Q 33.84375 34.859375 27.734375 34.859375 
Q 25.25 34.859375 21.53125 33.890625 
L 22.515625 41.609375 
Q 23.390625 41.5 23.921875 41.5 
Q 29.546875 41.5 34.03125 44.421875 
Q 38.53125 47.359375 38.53125 53.46875 
Q 38.53125 58.296875 35.25 61.46875 
Q 31.984375 64.65625 26.8125 64.65625 
Q 21.6875 64.65625 18.265625 61.421875 
Q 14.84375 58.203125 13.875 51.765625 
L 5.078125 53.328125 
Q 6.6875 62.15625 12.390625 67.015625 
Q 18.109375 71.875 26.609375 71.875 
Q 32.46875 71.875 37.390625 69.359375 
Q 42.328125 66.84375 44.9375 62.5 
Q 47.5625 58.15625 47.5625 53.265625 
Q 47.5625 48.640625 45.0625 44.828125 
Q 42.578125 41.015625 37.703125 38.765625 
Q 44.046875 37.3125 47.5625 32.6875 
Q 51.078125 28.078125 51.078125 21.140625 
Q 51.078125 11.765625 44.234375 5.25 
Q 37.40625 -1.265625 26.953125 -1.265625 
Q 17.53125 -1.265625 11.296875 4.34375 
Q 5.078125 9.96875 4.203125 18.890625 
z
" id="ArialMT-51"/>
       </defs>
       <use xlink:href="#ArialMT-51"/>
      </g>
     </g>
    </g>
    <g id="xtick_6">
     <g id="line2d_11">
      <path clip-path="url(#p9eca01112b)" d="M 397.601562 306.18 
L 397.601562 7.2 
" style="fill:none;stroke:#ffffff;stroke-linecap:round;"/>
     </g>
     <g id="line2d_12"/>
     <g id="text_6">
      <!-- 4 -->
      <g style="fill:#262626;" transform="translate(394.821094 320.337812)scale(0.1 -0.1)">
       <defs>
        <path d="M 32.328125 0 
L 32.328125 17.140625 
L 1.265625 17.140625 
L 1.265625 25.203125 
L 33.9375 71.578125 
L 41.109375 71.578125 
L 41.109375 25.203125 
L 50.78125 25.203125 
L 50.78125 17.140625 
L 41.109375 17.140625 
L 41.109375 0 
z
M 32.328125 25.203125 
L 32.328125 57.46875 
L 9.90625 25.203125 
z
" id="ArialMT-52"/>
       </defs>
       <use xlink:href="#ArialMT-52"/>
      </g>
     </g>
    </g>
    <g id="xtick_7">
     <g id="line2d_13">
      <path clip-path="url(#p9eca01112b)" d="M 472.001562 306.18 
L 472.001562 7.2 
" style="fill:none;stroke:#ffffff;stroke-linecap:round;"/>
     </g>
     <g id="line2d_14"/>
     <g id="text_7">
      <!-- 5 -->
      <g style="fill:#262626;" transform="translate(469.221094 320.337812)scale(0.1 -0.1)">
       <defs>
        <path d="M 4.15625 18.75 
L 13.375 19.53125 
Q 14.40625 12.796875 18.140625 9.390625 
Q 21.875 6 27.15625 6 
Q 33.5 6 37.890625 10.78125 
Q 42.28125 15.578125 42.28125 23.484375 
Q 42.28125 31 38.0625 35.34375 
Q 33.84375 39.703125 27 39.703125 
Q 22.75 39.703125 19.328125 37.765625 
Q 15.921875 35.84375 13.96875 32.765625 
L 5.71875 33.84375 
L 12.640625 70.609375 
L 48.25 70.609375 
L 48.25 62.203125 
L 19.671875 62.203125 
L 15.828125 42.96875 
Q 22.265625 47.46875 29.34375 47.46875 
Q 38.71875 47.46875 45.15625 40.96875 
Q 51.609375 34.46875 51.609375 24.265625 
Q 51.609375 14.546875 45.953125 7.46875 
Q 39.0625 -1.21875 27.15625 -1.21875 
Q 17.390625 -1.21875 11.203125 4.25 
Q 5.03125 9.71875 4.15625 18.75 
z
" id="ArialMT-53"/>
       </defs>
       <use xlink:href="#ArialMT-53"/>
      </g>
     </g>
    </g>
   </g>
   <g id="matplotlib.axis_2">
    <g id="ytick_1">
     <g id="line2d_15">
      <path clip-path="url(#p9eca01112b)" d="M 25.601562 306.18 
L 472.001562 306.18 
" style="fill:none;stroke:#ffffff;stroke-linecap:round;"/>
     </g>
     <g id="line2d_16"/>
     <g id="text_8">
      <!-- −1 -->
      <g style="fill:#262626;" transform="translate(7.2 309.758906)scale(0.1 -0.1)">
       <use xlink:href="#ArialMT-8722"/>
       <use x="58.398438" xlink:href="#ArialMT-49"/>
      </g>
     </g>
    </g>
    <g id="ytick_2">
     <g id="line2d_17">
      <path clip-path="url(#p9eca01112b)" d="M 25.601562 262.199192 
L 472.001562 262.199192 
" style="fill:none;stroke:#ffffff;stroke-linecap:round;"/>
     </g>
     <g id="line2d_18"/>
     <g id="text_9">
      <!-- 0 -->
      <g style="fill:#262626;" transform="translate(13.040625 265.778099)scale(0.1 -0.1)">
       <use xlink:href="#ArialMT-48"/>
      </g>
     </g>
    </g>
    <g id="ytick_3">
     <g id="line2d_19">
      <path clip-path="url(#p9eca01112b)" d="M 25.601562 218.218385 
L 472.001562 218.218385 
" style="fill:none;stroke:#ffffff;stroke-linecap:round;"/>
     </g>
     <g id="line2d_20"/>
     <g id="text_10">
      <!-- 1 -->
      <g style="fill:#262626;" transform="translate(13.040625 221.797291)scale(0.1 -0.1)">
       <use xlink:href="#ArialMT-49"/>
      </g>
     </g>
    </g>
    <g id="ytick_4">
     <g id="line2d_21">
      <path clip-path="url(#p9eca01112b)" d="M 25.601562 174.237577 
L 472.001562 174.237577 
" style="fill:none;stroke:#ffffff;stroke-linecap:round;"/>
     </g>
     <g id="line2d_22"/>
     <g id="text_11">
      <!-- 2 -->
      <g style="fill:#262626;" transform="translate(13.040625 177.816483)scale(0.1 -0.1)">
       <use xlink:href="#ArialMT-50"/>
      </g>
     </g>
    </g>
    <g id="ytick_5">
     <g id="line2d_23">
      <path clip-path="url(#p9eca01112b)" d="M 25.601562 130.256769 
L 472.001562 130.256769 
" style="fill:none;stroke:#ffffff;stroke-linecap:round;"/>
     </g>
     <g id="line2d_24"/>
     <g id="text_12">
      <!-- 3 -->
      <g style="fill:#262626;" transform="translate(13.040625 133.835675)scale(0.1 -0.1)">
       <use xlink:href="#ArialMT-51"/>
      </g>
     </g>
    </g>
    <g id="ytick_6">
     <g id="line2d_25">
      <path clip-path="url(#p9eca01112b)" d="M 25.601562 86.275961 
L 472.001562 86.275961 
" style="fill:none;stroke:#ffffff;stroke-linecap:round;"/>
     </g>
     <g id="line2d_26"/>
     <g id="text_13">
      <!-- 4 -->
      <g style="fill:#262626;" transform="translate(13.040625 89.854868)scale(0.1 -0.1)">
       <use xlink:href="#ArialMT-52"/>
      </g>
     </g>
    </g>
    <g id="ytick_7">
     <g id="line2d_27">
      <path clip-path="url(#p9eca01112b)" d="M 25.601562 42.295154 
L 472.001562 42.295154 
" style="fill:none;stroke:#ffffff;stroke-linecap:round;"/>
     </g>
     <g id="line2d_28"/>
     <g id="text_14">
      <!-- 5 -->
      <g style="fill:#262626;" transform="translate(13.040625 45.87406)scale(0.1 -0.1)">
       <use xlink:href="#ArialMT-53"/>
      </g>
     </g>
    </g>
   </g>
   <g id="PathCollection_1">
    <defs>
     <path d="M 0 3.5 
C 0.928211 3.5 1.81853 3.131218 2.474874 2.474874 
C 3.131218 1.81853 3.5 0.928211 3.5 -0 
C 3.5 -0.928211 3.131218 -1.81853 2.474874 -2.474874 
C 1.81853 -3.131218 0.928211 -3.5 0 -3.5 
C -0.928211 -3.5 -1.81853 -3.131218 -2.474874 -2.474874 
C -3.131218 -1.81853 -3.5 -0.928211 -3.5 0 
C -3.5 0.928211 -3.131218 1.81853 -2.474874 2.474874 
C -1.81853 3.131218 -0.928211 3.5 0 3.5 
z
" id="C0_0_025892291a"/>
    </defs>
    <g clip-path="url(#p9eca01112b)">
     <use style="fill:#b15928;stroke:#b15928;stroke-width:0.3;" x="205.115069" xlink:href="#C0_0_025892291a" y="194.893836"/>
    </g>
    <g clip-path="url(#p9eca01112b)">
     <use style="fill:#b15928;stroke:#b15928;stroke-width:0.3;" x="234.915647" xlink:href="#C0_0_025892291a" y="190.460747"/>
    </g>
    <g clip-path="url(#p9eca01112b)">
     <use style="fill:#a6cee3;stroke:#a6cee3;stroke-width:0.3;" x="206.60878" xlink:href="#C0_0_025892291a" y="69.70433"/>
    </g>
    <g clip-path="url(#p9eca01112b)">
     <use style="fill:#a6cee3;stroke:#a6cee3;stroke-width:0.3;" x="239.331746" xlink:href="#C0_0_025892291a" y="78.328965"/>
    </g>
    <g clip-path="url(#p9eca01112b)">
     <use style="fill:#b15928;stroke:#b15928;stroke-width:0.3;" x="255.882795" xlink:href="#C0_0_025892291a" y="214.737444"/>
    </g>
    <g clip-path="url(#p9eca01112b)">
     <use style="fill:#b15928;stroke:#b15928;stroke-width:0.3;" x="303.776313" xlink:href="#C0_0_025892291a" y="255.304402"/>
    </g>
    <g clip-path="url(#p9eca01112b)">
     <use style="fill:#b15928;stroke:#b15928;stroke-width:0.3;" x="336.977313" xlink:href="#C0_0_025892291a" y="258.284539"/>
    </g>
    <g clip-path="url(#p9eca01112b)">
     <use style="fill:#b15928;stroke:#b15928;stroke-width:0.3;" x="253.382187" xlink:href="#C0_0_025892291a" y="175.592803"/>
    </g>
    <g clip-path="url(#p9eca01112b)">
     <use style="fill:#b15928;stroke:#b15928;stroke-width:0.3;" x="251.655411" xlink:href="#C0_0_025892291a" y="211.41619"/>
    </g>
    <g clip-path="url(#p9eca01112b)">
     <use style="fill:#a6cee3;stroke:#a6cee3;stroke-width:0.3;" x="96.468155" xlink:href="#C0_0_025892291a" y="21.437143"/>
    </g>
    <g clip-path="url(#p9eca01112b)">
     <use style="fill:#a6cee3;stroke:#a6cee3;stroke-width:0.3;" x="227.556232" xlink:href="#C0_0_025892291a" y="41.186167"/>
    </g>
    <g clip-path="url(#p9eca01112b)">
     <use style="fill:#a6cee3;stroke:#a6cee3;stroke-width:0.3;" x="116.711271" xlink:href="#C0_0_025892291a" y="52.398357"/>
    </g>
    <g clip-path="url(#p9eca01112b)">
     <use style="fill:#a6cee3;stroke:#a6cee3;stroke-width:0.3;" x="179.552909" xlink:href="#C0_0_025892291a" y="62.936014"/>
    </g>
    <g clip-path="url(#p9eca01112b)">
     <use style="fill:#b15928;stroke:#b15928;stroke-width:0.3;" x="214.041081" xlink:href="#C0_0_025892291a" y="237.994185"/>
    </g>
    <g clip-path="url(#p9eca01112b)">
     <use style="fill:#a6cee3;stroke:#a6cee3;stroke-width:0.3;" x="211.224488" xlink:href="#C0_0_025892291a" y="92.49976"/>
    </g>
    <g clip-path="url(#p9eca01112b)">
     <use style="fill:#a6cee3;stroke:#a6cee3;stroke-width:0.3;" x="186.611399" xlink:href="#C0_0_025892291a" y="95.453442"/>
    </g>
    <g clip-path="url(#p9eca01112b)">
     <use style="fill:#a6cee3;stroke:#a6cee3;stroke-width:0.3;" x="155.345787" xlink:href="#C0_0_025892291a" y="80.892461"/>
    </g>
    <g clip-path="url(#p9eca01112b)">
     <use style="fill:#b15928;stroke:#b15928;stroke-width:0.3;" x="270.873997" xlink:href="#C0_0_025892291a" y="240.79032"/>
    </g>
    <g clip-path="url(#p9eca01112b)">
     <use style="fill:#a6cee3;stroke:#a6cee3;stroke-width:0.3;" x="133.005301" xlink:href="#C0_0_025892291a" y="125.185367"/>
    </g>
    <g clip-path="url(#p9eca01112b)">
     <use style="fill:#a6cee3;stroke:#a6cee3;stroke-width:0.3;" x="168.028367" xlink:href="#C0_0_025892291a" y="62.080077"/>
    </g>
    <g clip-path="url(#p9eca01112b)">
     <use style="fill:#b15928;stroke:#b15928;stroke-width:0.3;" x="224.597328" xlink:href="#C0_0_025892291a" y="232.291409"/>
    </g>
    <g clip-path="url(#p9eca01112b)">
     <use style="fill:#b15928;stroke:#b15928;stroke-width:0.3;" x="268.821662" xlink:href="#C0_0_025892291a" y="204.073824"/>
    </g>
    <g clip-path="url(#p9eca01112b)">
     <use style="fill:#b15928;stroke:#b15928;stroke-width:0.3;" x="212.411667" xlink:href="#C0_0_025892291a" y="221.348459"/>
    </g>
    <g clip-path="url(#p9eca01112b)">
     <use style="fill:#b15928;stroke:#b15928;stroke-width:0.3;" x="222.894832" xlink:href="#C0_0_025892291a" y="232.207283"/>
    </g>
    <g clip-path="url(#p9eca01112b)">
     <use style="fill:#b15928;stroke:#b15928;stroke-width:0.3;" x="285.460069" xlink:href="#C0_0_025892291a" y="219.315556"/>
    </g>
    <g clip-path="url(#p9eca01112b)">
     <use style="fill:#a6cee3;stroke:#a6cee3;stroke-width:0.3;" x="273.957903" xlink:href="#C0_0_025892291a" y="111.293656"/>
    </g>
    <g clip-path="url(#p9eca01112b)">
     <use style="fill:#a6cee3;stroke:#a6cee3;stroke-width:0.3;" x="149.885183" xlink:href="#C0_0_025892291a" y="84.475266"/>
    </g>
    <g clip-path="url(#p9eca01112b)">
     <use style="fill:#a6cee3;stroke:#a6cee3;stroke-width:0.3;" x="58.670591" xlink:href="#C0_0_025892291a" y="55.667145"/>
    </g>
    <g clip-path="url(#p9eca01112b)">
     <use style="fill:#b15928;stroke:#b15928;stroke-width:0.3;" x="260.833769" xlink:href="#C0_0_025892291a" y="233.32161"/>
    </g>
    <g clip-path="url(#p9eca01112b)">
     <use style="fill:#a6cee3;stroke:#a6cee3;stroke-width:0.3;" x="256.003845" xlink:href="#C0_0_025892291a" y="98.704032"/>
    </g>
    <g clip-path="url(#p9eca01112b)">
     <use style="fill:#b15928;stroke:#b15928;stroke-width:0.3;" x="262.210861" xlink:href="#C0_0_025892291a" y="196.947195"/>
    </g>
    <g clip-path="url(#p9eca01112b)">
     <use style="fill:#a6cee3;stroke:#a6cee3;stroke-width:0.3;" x="132.662429" xlink:href="#C0_0_025892291a" y="62.705379"/>
    </g>
    <g clip-path="url(#p9eca01112b)">
     <use style="fill:#a6cee3;stroke:#a6cee3;stroke-width:0.3;" x="192.450111" xlink:href="#C0_0_025892291a" y="64.10999"/>
    </g>
    <g clip-path="url(#p9eca01112b)">
     <use style="fill:#a6cee3;stroke:#a6cee3;stroke-width:0.3;" x="100.591656" xlink:href="#C0_0_025892291a" y="78.529043"/>
    </g>
    <g clip-path="url(#p9eca01112b)">
     <use style="fill:#a6cee3;stroke:#a6cee3;stroke-width:0.3;" x="241.05932" xlink:href="#C0_0_025892291a" y="34.140998"/>
    </g>
    <g clip-path="url(#p9eca01112b)">
     <use style="fill:#b15928;stroke:#b15928;stroke-width:0.3;" x="239.005761" xlink:href="#C0_0_025892291a" y="221.237101"/>
    </g>
    <g clip-path="url(#p9eca01112b)">
     <use style="fill:#b15928;stroke:#b15928;stroke-width:0.3;" x="258.578822" xlink:href="#C0_0_025892291a" y="212.111329"/>
    </g>
    <g clip-path="url(#p9eca01112b)">
     <use style="fill:#a6cee3;stroke:#a6cee3;stroke-width:0.3;" x="179.066161" xlink:href="#C0_0_025892291a" y="34.539075"/>
    </g>
    <g clip-path="url(#p9eca01112b)">
     <use style="fill:#b15928;stroke:#b15928;stroke-width:0.3;" x="273.700637" xlink:href="#C0_0_025892291a" y="263.258362"/>
    </g>
    <g clip-path="url(#p9eca01112b)">
     <use style="fill:#a6cee3;stroke:#a6cee3;stroke-width:0.3;" x="149.833715" xlink:href="#C0_0_025892291a" y="104.070244"/>
    </g>
    <g clip-path="url(#p9eca01112b)">
     <use style="fill:#b15928;stroke:#b15928;stroke-width:0.3;" x="180.141412" xlink:href="#C0_0_025892291a" y="210.507097"/>
    </g>
    <g clip-path="url(#p9eca01112b)">
     <use style="fill:#a6cee3;stroke:#a6cee3;stroke-width:0.3;" x="215.048003" xlink:href="#C0_0_025892291a" y="76.909237"/>
    </g>
    <g clip-path="url(#p9eca01112b)">
     <use style="fill:#b15928;stroke:#b15928;stroke-width:0.3;" x="216.614616" xlink:href="#C0_0_025892291a" y="268.273201"/>
    </g>
    <g clip-path="url(#p9eca01112b)">
     <use style="fill:#b15928;stroke:#b15928;stroke-width:0.3;" x="200.901177" xlink:href="#C0_0_025892291a" y="198.947774"/>
    </g>
    <g clip-path="url(#p9eca01112b)">
     <use style="fill:#a6cee3;stroke:#a6cee3;stroke-width:0.3;" x="174.678717" xlink:href="#C0_0_025892291a" y="77.854648"/>
    </g>
    <g clip-path="url(#p9eca01112b)">
     <use style="fill:#b15928;stroke:#b15928;stroke-width:0.3;" x="196.199016" xlink:href="#C0_0_025892291a" y="197.138309"/>
    </g>
    <g clip-path="url(#p9eca01112b)">
     <use style="fill:#b15928;stroke:#b15928;stroke-width:0.3;" x="319.349044" xlink:href="#C0_0_025892291a" y="172.689577"/>
    </g>
    <g clip-path="url(#p9eca01112b)">
     <use style="fill:#a6cee3;stroke:#a6cee3;stroke-width:0.3;" x="125.828652" xlink:href="#C0_0_025892291a" y="110.387271"/>
    </g>
    <g clip-path="url(#p9eca01112b)">
     <use style="fill:#b15928;stroke:#b15928;stroke-width:0.3;" x="305.534186" xlink:href="#C0_0_025892291a" y="227.467163"/>
    </g>
    <g clip-path="url(#p9eca01112b)">
     <use style="fill:#a6cee3;stroke:#a6cee3;stroke-width:0.3;" x="157.105258" xlink:href="#C0_0_025892291a" y="68.789337"/>
    </g>
   </g>
   <g id="LineCollection_1">
    <path clip-path="url(#p9eca01112b)" d="M 472.001562 89.9687 
L 422.401562 97.982232 
L 404.117699 100.936231 
L 372.801562 105.995764 
L 323.201562 114.009297 
L 273.601562 122.022829 
L 224.001562 130.036362 
L 222.637343 130.256769 
L 174.401562 138.049894 
L 124.801562 146.063426 
L 75.201562 154.076959 
L 41.156988 159.577308 
L 25.601562 162.090491 
" style="fill:none;stroke:#000000;stroke-dasharray:6.475,2.8;stroke-dashoffset:0;stroke-width:1.75;"/>
   </g>
   <g id="LineCollection_2">
    <path clip-path="url(#p9eca01112b)" d="M 472.001562 109.601126 
L 422.401562 117.614658 
L 372.801562 125.628191 
L 344.152837 130.256769 
L 323.201562 133.641723 
L 273.601562 141.655256 
L 224.001562 149.668788 
L 174.401562 157.68232 
L 162.672482 159.577308 
L 124.801562 165.695853 
L 75.201562 173.709385 
L 25.601562 181.722918 
" style="fill:none;stroke:#000000;stroke-width:1.75;"/>
   </g>
   <g id="LineCollection_3">
    <path clip-path="url(#p9eca01112b)" d="M 472.001562 129.233552 
L 465.668331 130.256769 
L 422.401562 137.247085 
L 372.801562 145.260617 
L 323.201562 153.27415 
L 284.187976 159.577308 
L 273.601562 161.287682 
L 224.001562 169.301214 
L 174.401562 177.314747 
L 124.801562 185.328279 
L 102.70762 188.897846 
L 75.201562 193.341811 
L 25.601562 201.355344 
" style="fill:none;stroke:#000000;stroke-dasharray:6.475,2.8;stroke-dashoffset:0;stroke-width:1.75;"/>
   </g>
   <g id="patch_3">
    <path d="M 25.601562 306.18 
L 25.601562 7.2 
" style="fill:none;"/>
   </g>
   <g id="patch_4">
    <path d="M 472.001562 306.18 
L 472.001562 7.2 
" style="fill:none;"/>
   </g>
   <g id="patch_5">
    <path d="M 25.601562 306.18 
L 472.001562 306.18 
" style="fill:none;"/>
   </g>
   <g id="patch_6">
    <path d="M 25.601562 7.2 
L 472.001562 7.2 
" style="fill:none;"/>
   </g>
  </g>
 </g>
 <defs>
  <clipPath id="p9eca01112b">
   <rect height="298.98" width="446.4" x="25.601562" y="7.2"/>
  </clipPath>
 </defs>
</svg>
