<?xml version="1.0" encoding="UTF-8"?>
<svg xmlns="http://www.w3.org/2000/svg" xmlns:xlink="http://www.w3.org/1999/xlink" width="300pt" height="300pt" viewBox="0 0 300 300" version="1.1">
<g id="surface1">
<path style=" stroke:none;fill-rule:nonzero;fill:rgb(0%,0%,0%);fill-opacity:1;" d="M 178.867188 2.25 L 190.144531 4.734375 L 199.265625 8.007812 L 206.644531 11.753906 L 212.261719 15.769531 L 216.507812 20.015625 L 219.628906 24.253906 L 221.625 28.367188 L 222.851562 32.117188 L 223.386719 35.34375 L 223.640625 37.882812 L 223.492188 39.496094 L 223.492188 106.246094 L 222.851562 114.113281 L 221.242188 121.003906 L 218.605469 126.769531 L 215.382812 131.503906 L 211.632812 135.355469 L 207.535156 138.476562 L 203.136719 140.878906 L 198.742188 142.632812 L 194.644531 143.90625 L 190.894531 144.730469 L 187.667969 145.265625 L 185.035156 145.519531 L 110.371094 145.519531 L 101.785156 146.148438 L 94.40625 147.863281 L 88.152344 150.648438 L 83.023438 154.011719 L 78.871094 158.023438 L 75.496094 162.367188 L 73.011719 166.910156 L 71.148438 171.496094 L 69.882812 175.882812 L 69.011719 179.898438 L 68.511719 183.261719 L 68.277344 185.898438 L 68.277344 224.136719 L 40.386719 224.136719 L 37.761719 223.734375 L 34.238281 222.863281 L 30.289062 221.398438 L 25.894531 219.148438 L 21.402344 215.886719 L 16.910156 211.386719 L 12.515625 205.621094 L 8.511719 198.242188 L 4.988281 189.121094 L 2.402344 178.132812 L 0.648438 165 L 0.0078125 149.625 L 0.75 134.390625 L 2.746094 121.40625 L 5.773438 110.523438 L 9.777344 101.636719 L 14.277344 94.511719 L 19.253906 89.035156 L 24.535156 84.878906 L 29.757812 81.910156 L 34.78125 79.910156 L 39.28125 78.636719 L 43.285156 78 L 46.257812 77.898438 L 48.253906 77.898438 L 49.039062 78 L 150.992188 78 L 150.992188 67.652344 L 77.992188 67.652344 L 77.886719 33.273438 L 77.652344 28.628906 L 78.292969 24.386719 L 79.652344 20.53125 L 81.75 17.007812 L 84.871094 13.789062 L 88.78125 10.902344 L 93.507812 8.417969 L 99.027344 6.121094 L 105.375 4.277344 L 112.652344 2.765625 L 120.601562 1.539062 L 129.488281 0.761719 L 139.117188 0.273438 L 149.617188 0.0195312 L 165.476562 0.65625 Z M 100.152344 27 L 97.265625 31.097656 L 96.246094 36.226562 L 97.265625 41.363281 L 100.152344 45.601562 L 104.25 48.382812 L 109.378906 49.507812 L 114.507812 48.382812 L 118.601562 45.601562 L 121.492188 41.363281 L 122.511719 36.226562 L 121.492188 31.097656 L 118.601562 27 L 114.507812 24.261719 L 109.378906 23.148438 L 104.25 24.261719 Z M 263.773438 76.359375 L 267.234375 77.148438 L 271.238281 78.609375 L 275.632812 80.859375 L 280.125 84.222656 L 284.625 88.621094 L 289.011719 94.480469 L 293.015625 101.839844 L 296.492188 110.980469 L 299.128906 122.015625 L 300.882812 135 L 301.519531 150.375 L 300.742188 165.757812 L 298.726562 178.742188 L 295.753906 189.476562 L 291.75 198.363281 L 287.25 205.488281 L 282.226562 211.117188 L 277.003906 215.214844 L 271.722656 218.242188 L 266.746094 220.238281 L 262.246094 221.363281 L 258.242188 222 L 255.273438 222.234375 L 253.277344 222.09375 L 150.488281 222.09375 L 150.488281 232.339844 L 223.492188 232.339844 L 223.640625 266.871094 L 223.875 271.359375 L 223.238281 275.605469 L 221.878906 279.460938 L 219.730469 283.070312 L 216.609375 286.191406 L 212.757812 289.230469 L 208.023438 291.710938 L 202.5 293.859375 L 196.152344 295.707031 L 188.878906 297.320312 L 180.878906 298.445312 L 172.042969 299.316406 L 162.367188 299.804688 L 151.867188 299.953125 L 136.003906 299.464844 L 122.625 297.703125 L 111.386719 295.21875 L 102.261719 292.097656 L 94.886719 288.339844 L 89.269531 284.183594 L 85.023438 279.9375 L 81.902344 275.699219 L 79.902344 271.585938 L 78.628906 267.835938 L 78.140625 264.714844 L 77.886719 262.210938 L 77.992188 260.605469 L 77.992188 193.855469 L 78.628906 185.839844 L 80.289062 179.054688 L 82.875 173.34375 L 86.148438 168.554688 L 89.898438 164.605469 L 94.011719 161.578125 L 98.402344 159.074219 L 102.75 157.320312 L 106.902344 156.046875 L 110.660156 155.324219 L 113.878906 154.839844 L 118.125 154.433594 L 191.128906 154.433594 L 199.761719 153.804688 L 207.140625 152.089844 L 213.394531 149.457031 L 218.523438 145.941406 L 222.636719 141.925781 L 226.003906 137.585938 L 228.542969 133.039062 L 230.410156 128.550781 L 231.675781 124.199219 L 232.566406 120.199219 L 233.050781 116.683594 L 233.289062 114.046875 L 233.289062 75.804688 L 259.414062 75.804688 L 261.175781 75.910156 Z M 182.859375 254.484375 L 179.972656 258.636719 L 178.996094 263.773438 L 179.972656 268.902344 L 182.859375 273 L 187.011719 275.878906 L 192.140625 276.851562 L 197.269531 275.878906 L 201.367188 273 L 204.253906 268.902344 L 205.273438 263.773438 L 204.253906 258.636719 L 201.367188 254.484375 L 197.269531 251.605469 L 192.140625 250.628906 L 187.011719 251.605469 Z M 182.859375 254.484375 "/>
</g>
</svg>
