<?xml version="1.0" encoding="UTF-8"?>
<svg xmlns="http://www.w3.org/2000/svg" xmlns:xlink="http://www.w3.org/1999/xlink" width="300pt" height="300pt" viewBox="0 0 300 300" version="1.1">
<defs>
<linearGradient id="linear0" gradientUnits="userSpaceOnUse" x1="55.549179" y1="77.070274" x2="110.14919" y2="131.85291" gradientTransform="matrix(2.727273,0,0,2.727273,-122.556818,-184.005682)">
<stop offset="0" style="stop-color:rgb(21.960784%,49.411765%,72.156863%);stop-opacity:1;"/>
<stop offset="1" style="stop-color:rgb(21.176471%,41.176471%,58.039216%);stop-opacity:1;"/>
</linearGradient>
<linearGradient id="linear1" gradientUnits="userSpaceOnUse" x1="89.136749" y1="111.92053" x2="147.77737" y2="168.1012" gradientTransform="matrix(2.727273,0,0,2.727273,-122.556818,-184.005682)">
<stop offset="0" style="stop-color:rgb(100%,87.843137%,32.156863%);stop-opacity:1;"/>
<stop offset="1" style="stop-color:rgb(100%,76.470588%,19.215686%);stop-opacity:1;"/>
</linearGradient>
</defs>
<g id="surface1">
<path style=" stroke:none;fill-rule:nonzero;fill:url(#linear0);" d="M 149.488281 0 C 73.035156 0 77.8125 33.152344 77.8125 33.152344 L 77.898438 67.5 L 150.851562 67.5 L 150.851562 77.8125 L 48.917969 77.8125 C 48.917969 77.8125 0 72.261719 0 149.402344 C 0 226.542969 42.699219 223.808594 42.699219 223.808594 L 68.183594 223.808594 L 68.183594 188.011719 C 68.183594 188.011719 66.808594 145.3125 110.199219 145.3125 C 153.589844 145.3125 182.558594 145.3125 182.558594 145.3125 C 182.558594 145.3125 223.210938 145.96875 223.210938 106.023438 C 223.210938 66.074219 223.210938 39.972656 223.210938 39.972656 C 223.210938 39.972656 229.382812 0 149.488281 0 Z M 109.261719 23.097656 C 116.519531 23.097656 122.386719 28.964844 122.386719 36.222656 C 122.386719 43.480469 116.519531 49.347656 109.261719 49.347656 C 102.003906 49.347656 96.136719 43.480469 96.136719 36.222656 C 96.136719 28.964844 102.003906 23.097656 109.261719 23.097656 Z M 109.261719 23.097656 "/>
<path style=" stroke:none;fill-rule:nonzero;fill:url(#linear1);" d="M 151.660156 299.582031 C 228.113281 299.582031 223.335938 266.425781 223.335938 266.425781 L 223.25 232.082031 L 150.296875 232.082031 L 150.296875 221.769531 L 252.230469 221.769531 C 252.230469 221.769531 301.148438 227.316406 301.148438 150.175781 C 301.148438 73.035156 258.449219 75.773438 258.449219 75.773438 L 232.964844 75.773438 L 232.964844 111.566406 C 232.964844 111.566406 234.339844 154.269531 190.949219 154.269531 C 147.558594 154.269531 118.589844 154.269531 118.589844 154.269531 C 118.589844 154.269531 77.9375 153.609375 77.9375 193.558594 C 77.9375 233.503906 77.9375 259.609375 77.9375 259.609375 C 77.9375 259.609375 71.765625 299.582031 151.660156 299.582031 Z M 191.886719 276.484375 C 184.628906 276.484375 178.761719 270.617188 178.761719 263.359375 C 178.761719 256.101562 184.628906 250.234375 191.886719 250.234375 C 199.144531 250.234375 205.011719 256.101562 205.011719 263.359375 C 205.011719 270.617188 199.144531 276.484375 191.886719 276.484375 Z M 191.886719 276.484375 "/>
</g>
</svg>
